<?xml version="1.0" standalone="no"?>
<!DOCTYPE svg PUBLIC "-//W3C//DTD SVG 20010904//EN"
 "http://www.w3.org/TR/2001/REC-SVG-20010904/DTD/svg10.dtd">
<svg version="1.0" xmlns="http://www.w3.org/2000/svg"
 width="359.000000pt" height="361.000000pt" viewBox="0 0 359.000000 361.000000"
 preserveAspectRatio="xMidYMid meet">

<g transform="translate(0.000000,361.000000) scale(0.100000,-0.100000)"
fill="#000000" stroke="none">
<path d="M1675 3557 c-241 -105 -407 -292 -422 -475 l-6 -68 -74 -37 -74 -37
-15 37 c-38 90 -25 244 27 329 24 39 24 66 1 87 -47 42 -106 2 -198 -135 -120
-179 -159 -350 -113 -492 l21 -65 -43 -50 c-24 -28 -46 -51 -50 -51 -15 0 -71
72 -96 125 -24 52 -28 75 -31 168 -4 102 -5 109 -28 124 -35 23 -70 4 -94 -51
-65 -145 -83 -381 -41 -506 24 -67 46 -105 92 -155 l27 -30 -25 -77 -26 -77
-34 14 c-96 40 -175 129 -213 240 -22 65 -32 75 -72 75 -19 0 -33 -8 -44 -26
-16 -23 -16 -36 -5 -130 19 -169 67 -296 149 -400 41 -53 118 -108 164 -119
25 -6 28 -12 28 -50 0 -23 3 -57 7 -75 l6 -33 -69 5 c-109 8 -194 57 -281 161
-27 32 -65 35 -93 7 -27 -27 -26 -34 15 -118 113 -237 291 -388 467 -396 l60
-3 39 -74 c22 -41 39 -75 39 -76 0 -1 -21 -10 -47 -20 -33 -12 -74 -18 -133
-18 -75 0 -93 4 -154 33 -75 35 -94 38 -118 19 -48 -37 -20 -87 102 -179 183
-139 379 -186 529 -129 l49 18 54 -43 c29 -24 54 -48 56 -53 5 -14 -71 -69
-135 -98 -51 -24 -71 -28 -162 -28 -89 -1 -105 -4 -117 -20 -19 -26 -18 -59 4
-78 9 -8 51 -27 92 -41 239 -80 480 -56 601 61 l36 34 81 -23 c45 -13 82 -27
82 -33 0 -24 -62 -114 -105 -154 -25 -23 -72 -54 -103 -67 -123 -53 -137 -67
-112 -112 14 -25 21 -27 85 -30 195 -8 442 95 534 225 22 30 42 67 46 82 5 25
11 29 58 35 29 3 65 6 81 6 l29 0 -7 -55 c-12 -104 -42 -163 -122 -243 -58
-56 -74 -79 -74 -101 0 -65 50 -69 165 -12 214 106 358 279 372 449 l6 68 70
36 c39 21 74 35 79 32 4 -3 15 -30 24 -61 24 -84 15 -183 -24 -268 -37 -78
-39 -96 -14 -118 34 -31 71 -21 119 31 94 100 168 233 199 352 20 80 15 208
-11 261 l-18 37 44 55 c24 31 49 56 56 56 17 1 82 -93 104 -149 14 -37 19 -76
19 -149 0 -82 3 -101 18 -114 42 -38 84 -15 112 60 95 250 72 520 -55 643
l-32 31 24 77 c13 42 26 78 28 80 6 6 88 -39 126 -69 45 -35 94 -109 115 -175
9 -27 24 -57 32 -66 36 -42 102 -5 102 56 0 71 -22 194 -51 280 -53 159 -133
261 -245 313 -51 23 -54 26 -54 61 0 20 -3 54 -7 76 l-6 38 64 -7 c97 -10 180
-53 254 -130 64 -68 91 -78 117 -47 27 31 28 52 3 107 -103 234 -315 415 -486
415 l-48 0 -40 74 c-23 40 -41 76 -41 79 0 4 25 14 57 23 89 26 200 16 290
-25 70 -32 73 -33 98 -17 42 28 34 70 -22 123 -185 171 -433 252 -593 194
l-61 -23 -55 42 c-30 24 -54 46 -54 50 0 16 76 74 130 99 46 22 72 27 163 29
96 3 109 6 122 25 35 50 4 84 -110 120 -104 32 -242 50 -324 42 -116 -12 -228
-61 -284 -123 -18 -20 -18 -20 -95 5 -42 13 -78 26 -80 28 -6 6 39 88 70 127
36 46 106 92 172 114 28 9 59 23 69 32 26 23 22 68 -9 89 -24 15 -37 16 -130
5 -244 -27 -433 -130 -504 -276 l-31 -63 -67 -6 c-37 -3 -71 -2 -76 3 -13 13
10 124 39 187 16 36 48 77 90 118 77 73 84 104 28 134 -26 13 -18 15 -78 -12z
m373 -274 c-2 -5 -17 -35 -34 -68 -17 -33 -37 -84 -43 -114 -16 -74 -1 -95 76
-111 32 -7 95 -25 140 -41 113 -40 124 -39 166 20 41 57 97 87 187 102 34 5
64 8 66 6 2 -2 -22 -24 -55 -50 -66 -51 -121 -123 -121 -160 0 -18 27 -45 120
-120 66 -54 127 -97 135 -97 9 0 34 12 57 28 38 24 50 27 132 27 54 0 103 -6
121 -14 l30 -13 -52 -14 c-101 -26 -203 -91 -203 -128 0 -9 19 -46 41 -83 23
-38 55 -97 71 -133 16 -36 36 -70 44 -77 10 -7 40 -9 88 -6 64 5 80 3 127 -20
30 -13 70 -38 89 -55 l35 -29 -95 4 c-114 6 -176 -7 -192 -42 -8 -17 -7 -45 1
-100 6 -42 11 -98 11 -125 0 -60 13 -97 37 -104 10 -2 38 -10 61 -16 55 -14
125 -78 159 -143 13 -27 21 -48 16 -45 -4 2 -35 17 -68 34 -33 18 -86 37 -117
44 -52 12 -60 11 -77 -4 -11 -10 -25 -41 -32 -69 -7 -29 -25 -90 -41 -136 -39
-116 -37 -131 15 -167 57 -41 97 -117 104 -197 3 -38 2 -58 -4 -52 -5 6 -26
31 -47 57 -20 27 -57 61 -81 78 -65 45 -101 40 -137 -18 -13 -21 -53 -72 -90
-115 -38 -44 -68 -83 -68 -88 0 -5 16 -39 36 -76 34 -63 36 -72 31 -134 -3
-36 -12 -81 -20 -100 l-14 -34 -21 70 c-36 119 -96 193 -142 177 -8 -3 -28
-15 -45 -26 -16 -12 -75 -44 -130 -71 l-100 -50 0 -90 c0 -80 -3 -96 -29 -142
-15 -28 -41 -63 -56 -78 l-27 -26 10 60 c13 82 1 187 -25 213 -16 16 -28 19
-57 14 -20 -4 -76 -9 -126 -12 -120 -8 -153 -18 -161 -52 -12 -58 -35 -109
-63 -139 -28 -31 -117 -93 -133 -93 -4 0 8 30 27 68 20 37 41 93 47 124 11 51
10 59 -6 77 -10 11 -41 25 -69 31 -28 6 -91 24 -140 40 -106 36 -122 37 -145
8 -44 -57 -94 -97 -139 -111 -60 -19 -133 -30 -132 -20 0 5 22 25 50 46 61 46
118 123 119 159 0 21 -16 40 -88 96 -48 39 -100 82 -117 96 -38 32 -56 32
-107 -1 -38 -25 -50 -28 -132 -28 -54 0 -103 6 -121 14 l-30 13 54 14 c75 20
161 65 185 98 l20 27 -32 57 c-19 31 -53 98 -77 149 -24 50 -50 93 -57 96 -7
2 -47 2 -88 -1 -65 -4 -82 -1 -120 18 -46 23 -124 80 -118 86 2 1 36 -2 76 -7
86 -12 170 1 197 31 15 16 17 30 11 77 -4 32 -11 100 -15 152 -7 80 -11 97
-31 113 -12 10 -33 18 -47 18 -59 0 -141 67 -183 150 -27 53 -26 54 18 25 45
-30 145 -65 190 -67 18 -1 40 5 48 14 8 8 26 57 39 109 13 52 31 111 39 131
28 65 22 85 -43 147 -48 45 -62 67 -75 110 -9 30 -16 73 -15 95 l0 41 17 -25
c32 -49 138 -148 164 -155 41 -10 50 -4 114 77 31 40 73 90 92 110 42 44 43
71 6 127 -36 55 -43 135 -19 217 l17 59 24 -71 c41 -126 95 -194 141 -177 9 4
44 23 78 43 33 21 89 52 125 70 36 18 67 34 70 37 3 3 5 44 5 91 0 96 17 144
75 212 l30 35 -6 -71 c-9 -97 3 -181 28 -206 16 -16 28 -19 57 -14 20 4 84 11
143 16 59 5 116 14 127 19 13 7 23 30 31 67 9 40 22 67 48 97 48 53 155 121
140 90z"/>
<path d="M1674 2355 c-205 -44 -370 -209 -419 -417 -41 -176 18 -383 147 -512
167 -167 431 -205 657 -94 191 93 315 339 283 562 -46 316 -355 529 -668 461z
m241 -127 c157 -39 276 -174 305 -346 38 -229 -126 -454 -360 -491 -283 -46
-538 209 -491 491 43 260 283 412 546 346z"/>
</g>
</svg>
