<?xml version="1.0" standalone="no"?>
<!DOCTYPE svg PUBLIC "-//W3C//DTD SVG 20010904//EN"
 "http://www.w3.org/TR/2001/REC-SVG-20010904/DTD/svg10.dtd">
<svg version="1.0" xmlns="http://www.w3.org/2000/svg"
 width="184.000000pt" height="206.000000pt" viewBox="0 0 184.000000 206.000000"
 preserveAspectRatio="xMidYMid meet">

<g transform="translate(0.000000,206.000000) scale(0.100000,-0.100000)"
fill="#000000" stroke="none">
<path d="M853 1993 c-7 -2 -13 -16 -13 -29 0 -17 -6 -24 -19 -24 -11 0 -22 6
-25 13 -8 20 -55 -43 -67 -90 -6 -24 -15 -43 -20 -43 -5 0 -9 -9 -9 -20 0 -19
7 -20 199 -20 205 0 227 4 199 38 -8 9 -20 35 -26 58 -13 44 -62 98 -69 77 -8
-23 -33 -14 -33 12 0 14 -4 25 -9 25 -5 0 -16 3 -25 6 -13 5 -16 -1 -16 -26 0
-25 -4 -31 -17 -28 -11 2 -19 14 -21 31 -3 27 -7 30 -29 20z"/>
<path d="M365 1770 c-4 -6 10 -10 35 -10 25 0 39 4 35 10 -3 6 -19 10 -35 10
-16 0 -32 -4 -35 -10z"/>
<path d="M1112 1758 c-7 -7 -12 -25 -12 -40 0 -36 -21 -87 -49 -115 -11 -12
-21 -25 -21 -28 0 -3 33 -5 73 -3 l72 3 3 38 c4 50 27 43 26 -7 l-1 -37 131 3
131 3 3 38 c4 50 27 44 26 -7 l-1 -36 67 0 67 0 7 46 c3 26 6 64 6 84 l0 37
-122 12 c-68 6 -135 14 -150 17 -25 5 -28 3 -28 -21 0 -32 -23 -29 -28 3 -3
21 -9 22 -96 22 -58 0 -96 -4 -104 -12z"/>
<path d="M625 1751 c-53 -5 -60 -9 -63 -28 -4 -30 -18 -29 -26 2 -6 24 -9 25
-94 25 -137 0 -188 -9 -200 -34 l-11 -21 -7 23 c-5 18 -14 22 -45 22 -37 0
-38 -1 -43 -42 -3 -24 -7 -69 -9 -101 l-4 -58 41 3 c38 3 41 5 47 38 l6 35 8
-34 8 -34 161 7 c89 3 211 9 273 13 l112 6 -28 36 c-31 39 -51 90 -51 127 0
13 -3 23 -7 22 -5 -1 -35 -4 -68 -7z"/>
<path d="M730 1724 c0 -141 184 -217 289 -121 30 27 60 93 61 130 l0 27 -175
0 -175 0 0 -36z"/>
<path d="M380 1530 c0 -23 84 -99 131 -119 27 -12 79 -25 114 -28 l65 -6 1
-121 c1 -119 1 -120 16 -86 17 37 31 267 19 315 -6 23 -10 25 -67 25 -33 0
-76 7 -96 15 -41 17 -183 21 -183 5z"/>
<path d="M770 1505 c0 -17 52 -104 75 -128 52 -51 115 -27 160 64 14 26 25 53
25 59 0 6 -47 10 -130 10 -71 0 -130 -2 -130 -5z"/>
<path d="M1074 1443 c-8 -82 1 -203 20 -263 l14 -45 1 88 c1 51 5 86 10 82 24
-14 44 -155 47 -330 4 -169 5 -181 25 -197 27 -23 41 -23 73 3 l26 20 0 163
c0 240 -31 385 -100 474 -20 25 -86 72 -102 72 -3 0 -10 -30 -14 -67z"/>
<path d="M685 908 c-7 -67 -65 -745 -65 -769 0 -27 46 -76 77 -82 36 -7 88 15
103 43 6 11 24 175 40 363 17 188 31 353 32 367 2 19 9 25 28 25 l25 0 31
-366 c18 -204 37 -375 44 -388 15 -29 67 -51 103 -44 28 6 77 54 77 77 0 19
-58 701 -66 769 l-6 57 -208 0 -209 0 -6 -52z"/>
</g>
</svg>
