<?xml version="1.0" standalone="no"?>
<!DOCTYPE svg PUBLIC "-//W3C//DTD SVG 20010904//EN"
 "http://www.w3.org/TR/2001/REC-SVG-20010904/DTD/svg10.dtd">
<svg version="1.0" xmlns="http://www.w3.org/2000/svg"
 width="214.000000pt" height="160.000000pt" viewBox="0 0 214.000000 160.000000"
 preserveAspectRatio="xMidYMid meet">

<g transform="translate(0.000000,160.000000) scale(0.100000,-0.100000)"
fill="#000000" stroke="none">
<path d="M400 1499 c-26 -10 -100 -85 -100 -100 0 -10 -2 -9 164 -44 65 -14
121 -23 124 -20 4 3 1 15 -6 25 -7 11 -12 28 -12 37 0 32 -40 84 -75 99 -39
16 -60 17 -95 3z"/>
<path d="M771 1456 c-36 -20 -50 -54 -51 -121 0 -75 25 -123 71 -132 29 -6 30
-8 25 -42 l-7 -36 23 38 c19 33 27 37 61 37 29 0 46 7 68 29 27 27 29 35 29
106 0 71 -2 79 -29 106 -27 26 -35 29 -98 29 -37 -1 -79 -7 -92 -14z m145 -60
c37 -31 39 -86 4 -121 -58 -56 -150 -20 -150 60 0 76 87 112 146 61z"/>
<path d="M810 1351 c0 -5 -2 -16 -5 -24 -4 -8 0 -14 10 -14 9 0 15 9 15 24 0
13 -4 23 -10 23 -5 0 -10 -4 -10 -9z"/>
<path d="M840 1334 c0 -23 2 -24 15 -10 8 8 15 19 15 25 0 6 -7 11 -15 11 -9
0 -15 -10 -15 -26z"/>
<path d="M880 1334 c0 -23 2 -24 15 -10 8 8 15 19 15 25 0 6 -7 11 -15 11 -9
0 -15 -10 -15 -26z"/>
<path d="M307 1350 c-3 -11 -1 -35 4 -53 32 -117 190 -132 240 -22 10 22 17
41 16 42 -3 3 -236 53 -247 53 -4 0 -10 -9 -13 -20z"/>
<path d="M1195 1341 c-87 -39 -139 -143 -115 -230 6 -23 13 -48 16 -55 3 -7
-10 -17 -31 -25 -107 -38 -164 -163 -121 -266 l15 -35 -47 0 c-125 0 -242
-119 -242 -245 0 -87 62 -183 144 -221 66 -31 120 -30 243 2 54 14 114 30 134
35 l36 9 -24 48 c-52 105 -37 220 38 306 23 26 59 56 80 67 l39 19 -34 35
c-53 53 -62 155 -19 214 24 33 98 71 139 71 51 0 115 -40 141 -90 38 -71 28
-138 -29 -197 -23 -24 -28 -34 -17 -37 60 -20 393 -86 409 -81 32 10 60 54 60
94 0 46 -21 76 -69 100 -36 19 -38 22 -38 67 0 41 -4 51 -36 81 -32 29 -37 39
-37 77 0 36 -4 46 -20 51 -27 9 -60 -3 -60 -21 0 -18 -24 -18 -39 -1 -6 8 -17
46 -26 86 -18 88 -20 91 -49 91 -31 0 -46 -18 -46 -57 0 -18 -3 -33 -6 -33 -3
0 -48 29 -100 66 -52 36 -110 72 -129 80 -47 19 -112 17 -160 -5z m164 -41
c64 -32 105 -123 82 -183 -17 -44 -31 -32 -24 21 6 54 -8 91 -52 132 -23 21
-36 25 -90 25 -54 0 -67 -4 -90 -25 -61 -56 -71 -140 -26 -201 23 -31 14 -40
-11 -11 -24 27 -40 89 -33 125 24 113 142 170 244 117z m-11 -38 c31 -20 52
-63 52 -106 0 -51 -7 -63 -58 -97 -61 -41 -112 -37 -159 15 -101 110 40 270
165 188z m302 8 c0 -5 -9 -10 -20 -10 -11 0 -20 5 -20 10 0 6 9 10 20 10 11 0
20 -4 20 -10z m160 -150 c0 -5 -9 -10 -20 -10 -11 0 -20 5 -20 10 0 6 9 10 20
10 11 0 20 -4 20 -10z m-617 -134 c35 -15 74 -52 64 -62 -3 -4 -20 5 -37 20
-128 107 -303 -43 -212 -183 9 -13 30 -32 47 -43 l30 -19 -30 7 c-81 18 -119
118 -76 202 22 43 46 67 81 81 36 14 96 13 133 -3z m3 -43 c25 -16 54 -71 54
-103 0 -30 -25 -75 -56 -99 -86 -68 -217 26 -190 135 8 32 58 81 89 87 31 6
78 -3 103 -20z m559 -37 c32 -14 48 -36 26 -36 -24 0 -71 24 -71 36 0 17 3 17
45 0z m144 -57 c28 -12 50 -24 47 -26 -7 -7 -116 30 -116 39 0 12 13 10 69
-13z m-619 -56 c0 -26 -37 -77 -70 -96 -24 -15 -40 -17 -73 -11 l-42 8 43 7
c56 10 98 41 113 84 13 34 29 38 29 8z m-282 -119 c130 -54 171 -206 85 -322
-50 -66 -163 -94 -244 -59 -137 59 -164 262 -47 350 64 47 140 59 206 31z"/>
<path d="M1219 1237 c-47 -31 -60 -82 -33 -128 51 -88 184 -57 184 43 0 48
-22 83 -62 97 -43 15 -50 14 -89 -12z m107 -21 c54 -46 30 -127 -43 -142 -62
-12 -118 78 -80 127 34 43 84 50 123 15z"/>
<path d="M1234 1195 c-29 -29 -26 -58 9 -88 57 -50 131 39 77 93 -27 27 -56
25 -86 -5z m77 -4 c20 -16 22 -23 14 -46 -13 -36 -46 -48 -74 -29 -25 18 -27
56 -5 78 20 21 37 20 65 -3z"/>
<path d="M1080 927 c-38 -18 -63 -77 -50 -113 16 -42 39 -63 75 -70 37 -7 89
15 105 45 15 30 12 83 -8 107 -34 43 -77 54 -122 31z m94 -28 c20 -16 26 -29
26 -59 0 -84 -108 -112 -146 -38 -41 79 50 152 120 97z"/>
<path d="M1087 882 c-53 -58 28 -137 83 -82 24 24 25 48 4 78 -19 27 -64 29
-87 4z m75 -9 c22 -20 23 -41 1 -65 -31 -34 -83 -12 -83 36 0 44 47 61 82 29z"/>
<path d="M844 641 c-23 -10 -54 -36 -70 -57 -25 -32 -29 -47 -29 -99 0 -52 4
-67 28 -98 37 -49 81 -71 142 -71 125 -1 204 134 148 251 -35 75 -141 111
-219 74z m129 -15 c45 -18 84 -67 92 -116 5 -32 2 -50 -17 -87 -29 -60 -64
-85 -125 -90 -160 -13 -227 204 -87 284 45 26 90 29 137 9z"/>
<path d="M832 566 c-32 -30 -37 -40 -37 -78 0 -55 25 -95 73 -115 70 -29 149
18 159 94 10 75 -43 133 -122 133 -26 0 -45 -9 -73 -34z m149 -15 c48 -49 38
-125 -21 -156 -47 -24 -78 -19 -117 20 -32 32 -35 39 -30 78 12 85 107 118
168 58z"/>
<path d="M871 543 c-11 -10 -24 -32 -27 -50 -5 -26 -1 -37 19 -57 31 -31 65
-33 101 -5 34 27 35 71 1 104 -28 29 -64 32 -94 8z m72 -4 c28 -15 37 -28 37
-56 0 -29 -33 -63 -60 -63 -25 0 -70 42 -70 65 0 18 43 65 60 65 6 0 21 -5 33
-11z"/>
<path d="M254 1181 c-43 -26 -61 -54 -87 -136 -16 -54 -21 -94 -21 -175 0
-113 8 -139 54 -180 22 -20 32 -43 48 -115 19 -86 20 -98 7 -260 -13 -150 -12
-173 1 -193 31 -47 100 -45 122 3 6 12 16 103 23 202 12 177 12 179 -14 293
-14 63 -28 138 -31 165 -4 31 -27 94 -63 166 -60 124 -64 157 -22 180 43 23
66 4 115 -92 45 -91 46 -91 77 -85 18 4 61 20 96 36 35 17 76 30 92 30 57 0
63 67 8 95 -28 15 -32 14 -107 -25 -43 -22 -80 -40 -83 -40 -3 0 -29 31 -58
69 -64 85 -98 98 -157 62z"/>
<path d="M259 1099 c-9 -18 -2 -40 50 -145 59 -122 61 -124 93 -124 18 1 89
20 158 43 108 36 125 45 128 65 4 29 -14 52 -41 52 -11 0 -65 -14 -119 -31
-55 -17 -101 -29 -103 -27 -1 2 -24 45 -49 96 -43 85 -48 92 -76 92 -20 0 -33
-7 -41 -21z"/>
<path d="M736 1040 c-46 -38 -56 -52 -39 -57 13 -4 107 84 96 90 -5 3 -31 -12
-57 -33z"/>
<path d="M1393 1029 c-64 -19 -106 -109 -80 -170 45 -105 180 -120 237 -26 42
68 17 152 -55 187 -45 22 -55 23 -102 9z m97 -24 c40 -21 60 -53 60 -97 0 -75
-43 -118 -118 -118 -49 0 -86 28 -102 75 -15 46 -5 86 28 117 44 41 84 48 132
23z"/>
<path d="M1377 970 c-34 -27 -43 -70 -23 -109 31 -60 99 -70 147 -22 41 41 37
102 -10 138 -25 19 -85 15 -114 -7z m116 -22 c9 -11 17 -33 17 -49 0 -66 -88
-95 -129 -43 -24 30 -26 43 -10 78 22 48 86 56 122 14z"/>
<path d="M1400 940 c-11 -11 -20 -27 -20 -35 0 -20 45 -65 65 -65 21 0 55 36
55 60 0 11 -9 29 -20 40 -11 11 -29 20 -40 20 -11 0 -29 -9 -40 -20z m72 -7
c36 -33 13 -77 -38 -71 -34 4 -48 37 -28 67 18 25 41 27 66 4z"/>
<path d="M1330 713 c-164 -86 -189 -306 -49 -426 40 -35 118 -67 161 -67 9 0
140 30 290 67 263 64 274 68 309 102 50 50 58 98 27 159 -13 26 -36 54 -53 64
-42 24 -475 121 -560 126 -62 3 -76 0 -125 -25z m185 -24 c25 -7 58 -29 86
-58 37 -36 49 -57 59 -101 20 -91 -14 -176 -91 -227 -37 -25 -52 -28 -120 -28
-70 0 -81 3 -121 30 -111 79 -126 235 -30 328 62 61 134 79 217 56z m290 -110
c7 -7 -5 -9 -34 -7 -27 2 -46 9 -49 17 -4 11 3 12 34 7 22 -4 44 -12 49 -17z
m180 -9 c23 -6 12 -8 -42 -9 -39 0 -75 4 -78 9 -7 12 74 12 120 0z"/>
<path d="M1408 660 c-46 -8 -79 -30 -115 -76 -23 -31 -28 -47 -28 -99 0 -52 5
-68 28 -103 36 -51 87 -77 152 -76 99 1 166 65 173 165 4 50 0 65 -22 104 -39
65 -111 98 -188 85z m72 -16 c44 -9 105 -70 119 -118 41 -152 -146 -268 -264
-165 -87 77 -66 222 39 270 45 20 58 22 106 13z"/>
<path d="M1394 596 c-49 -22 -74 -61 -74 -118 0 -43 4 -54 34 -84 30 -30 40
-34 84 -34 62 0 106 32 123 90 28 92 -79 185 -167 146z m96 -21 c33 -17 60
-61 60 -97 0 -41 -36 -86 -78 -99 -117 -35 -193 128 -89 191 39 24 68 25 107
5z"/>
<path d="M1395 535 c-42 -42 -30 -104 25 -124 55 -19 100 12 100 69 0 72 -76
105 -125 55z m95 -5 c42 -42 14 -110 -46 -110 -59 0 -85 69 -42 110 28 25 62
26 88 0z"/>
</g>
</svg>
